<svg xmlns="http://www.w3.org/2000/svg" width="1600" height="720" viewBox="0 0 1600 720">
<defs><marker id="arrow" markerWidth="10" markerHeight="10" refX="8" refY="3" orient="auto"><path d="M0,0 L0,6 L9,3 z" fill="#2E5D7B"/></marker></defs>
<rect width="1600" height="720" fill="white"/>
<text x="800" y="48" text-anchor="middle" font-family="Yu Gothic" font-size="30" font-weight="bold" fill="#173A55">S/T共分散生成フロー</text>
<rect x="80" y="270" width="300" height="140" rx="16" fill="#E8EEF5" stroke="#426B8A" stroke-width="3"/>
<foreignObject x="92" y="280" width="276" height="120"><div xmlns="http://www.w3.org/1999/xhtml" style="font-family:Yu Gothic;font-size:23px;text-align:center;color:#132638;display:flex;align-items:center;justify-content:center;height:100%;">整数遅延前snapshot</div></foreignObject>
<rect x="520" y="120" width="350" height="130" rx="16" fill="#F2F4F7" stroke="#426B8A" stroke-width="3"/>
<foreignObject x="532" y="130" width="326" height="110"><div xmlns="http://www.w3.org/1999/xhtml" style="font-family:Yu Gothic;font-size:23px;text-align:center;color:#132638;display:flex;align-items:center;justify-content:center;height:100%;">同一時刻block
S共分散 R_S</div></foreignObject>
<rect x="520" y="430" width="350" height="130" rx="16" fill="#EAF4EA" stroke="#426B8A" stroke-width="3"/>
<foreignObject x="532" y="440" width="326" height="110"><div xmlns="http://www.w3.org/1999/xhtml" style="font-family:Yu Gothic;font-size:23px;text-align:center;color:#132638;display:flex;align-items:center;justify-content:center;height:100%;">候補方位別の時間・位相整合
T共分散 R_T(θ_b)</div></foreignObject>
<rect x="1040" y="270" width="370" height="140" rx="16" fill="#FFF4CE" stroke="#426B8A" stroke-width="3"/>
<foreignObject x="1052" y="280" width="346" height="120"><div xmlns="http://www.w3.org/1999/xhtml" style="font-family:Yu Gothic;font-size:23px;text-align:center;color:#132638;display:flex;align-items:center;justify-content:center;height:100%;">共通の重み設計部品
EBAE または MVDR</div></foreignObject>
<line x1="380" y1="310" x2="520" y2="185" stroke="#2E5D7B" stroke-width="4" marker-end="url(#arrow)"/>
<text x="450" y="231" text-anchor="middle" font-family="Yu Gothic" font-size="22" font-weight="bold" fill="#2E5D7B">S</text>
<line x1="380" y1="370" x2="520" y2="495" stroke="#2E5D7B" stroke-width="4" marker-end="url(#arrow)"/>
<text x="450" y="416" text-anchor="middle" font-family="Yu Gothic" font-size="22" font-weight="bold" fill="#2E5D7B">T</text>
<line x1="870" y1="185" x2="1040" y2="315" stroke="#2E5D7B" stroke-width="4" marker-end="url(#arrow)"/>
<line x1="870" y1="495" x2="1040" y2="365" stroke="#2E5D7B" stroke-width="4" marker-end="url(#arrow)"/>
</svg>